# xmcd CD database file
#
# Track frame offsets:
#	150
#	29445
#	56732
#	95207
#	124307
#	157980
#	185695
#	212675
#	232460
#	265245
#
# Disc length: 4077 seconds
#
# Revision: 1
# Processed by: cddbd v1.5.2PL0 Copyright (c) Steve Scherf et al.
# Submitted via: CDex 1.70beta2
#
DISCID=9a0feb0a
DTITLE=George Garzone Quartet - Demetrio's Dream music by Gianni Pezzano
DYEAR=1996
DGENRE=Jazz
TTITLE0=Foggy Night
TTITLE1=Funkey
TTITLE2=Eleanor
TTITLE3=Angela
TTITLE4=Friens in Paris
TTITLE5=Laputa
TTITLE6=Danza di notte
TTITLE7=Lovely
TTITLE8=Another kind of blues
TTITLE9=Blues for Ted
EXTD=YEAR: 1996
EXTT0=
EXTT1=
EXTT2=
EXTT3=
EXTT4=
EXTT5=
EXTT6=
EXTT7=
EXTT8=
EXTT9=
PLAYORDER=
